<?xml version="1.0" encoding="utf-8"?>
<!-- Generator: Adobe Illustrator 19.0.0, SVG Export Plug-In . SVG Version: 6.00 Build 0)  -->
<svg version="1.1" id="Layer_1" xmlns="http://www.w3.org/2000/svg" xmlns:xlink="http://www.w3.org/1999/xlink" x="0px" y="0px"
	 viewBox="0 0 44.8 35.6" style="enable-background:new 0 0 44.8 35.6;" xml:space="preserve">
<style type="text/css">
	.st0{fill:#999999;}
	.st1{fill:#FF6666;}
</style>
<g id="XMLID_1571_">
	<g id="XMLID_1572_">
		<path id="XMLID_1574_" class="st0" d="M22.4,7.2l-16,13.2c0,0,0,0,0,0.1c0,0,0,0.1,0,0.1v13.3c0,0.5,0.2,0.9,0.5,1.2
			c0.4,0.4,0.8,0.5,1.2,0.5h10.7V25h7.1v10.7h10.7c0.5,0,0.9-0.2,1.2-0.5c0.4-0.4,0.5-0.8,0.5-1.2V20.5c0-0.1,0-0.1,0-0.2L22.4,7.2z
			"/>
		<path id="XMLID_1573_" class="st1" d="M44.4,17.4l-6.1-5.1V1c0-0.3-0.1-0.5-0.3-0.6c-0.2-0.2-0.4-0.2-0.6-0.2h-5.3
			c-0.3,0-0.5,0.1-0.6,0.2c-0.2,0.2-0.2,0.4-0.2,0.6v5.4l-6.8-5.7C23.9,0.2,23.2,0,22.4,0c-0.8,0-1.5,0.2-2.1,0.7l-20,16.6
			C0.1,17.5,0,17.7,0,17.9c0,0.2,0,0.5,0.2,0.7l1.7,2.1c0.1,0.2,0.3,0.3,0.6,0.3c0.2,0,0.4,0,0.7-0.2l19.2-16l19.2,16
			c0.1,0.1,0.3,0.2,0.6,0.2h0.1c0.2,0,0.4-0.1,0.6-0.3l1.7-2.1c0.1-0.2,0.2-0.4,0.2-0.7C44.7,17.7,44.6,17.5,44.4,17.4z"/>
	</g>
</g>
</svg>
