<?xml version="1.0" encoding="utf-8"?>
<!-- Generator: Adobe Illustrator 19.0.0, SVG Export Plug-In . SVG Version: 6.00 Build 0)  -->
<svg version="1.1" id="Layer_1" xmlns="http://www.w3.org/2000/svg" xmlns:xlink="http://www.w3.org/1999/xlink" x="0px" y="0px"
	 viewBox="0 0 22 14.8" style="enable-background:new 0 0 22 14.8;" xml:space="preserve">
<style type="text/css">
	.st0{fill:#EFEDEA;}
	.st1{fill:#CCCBCA;}
</style>
<g id="XMLID_7_">
	<g id="XMLID_8_">
		<path id="XMLID_10_" class="st0" d="M1.7,0.9l7.9,6C10,7.2,10.5,7.3,11,7.3c0.5,0,1-0.1,1.3-0.4l7.9-6C20.9,0.4,20.7,0,19.9,0H11
			H2.1C1.3,0,1.1,0.4,1.7,0.9z"/>
		<path id="XMLID_9_" class="st1" d="M20.8,2.5l-8.7,6.3C11.8,9,11.4,9.2,11,9.1c-0.4,0-0.8-0.1-1.2-0.3L1.2,2.5C0.5,2,0,2.3,0,3
			v10.4c0,0.8,0.7,1.4,1.5,1.4H11h9.5c0.8,0,1.5-0.6,1.5-1.4V3C22,2.3,21.5,2,20.8,2.5z"/>
	</g>
</g>
</svg>
