<?xml version="1.0" encoding="utf-8"?>
<!-- Generator: Adobe Illustrator 19.0.0, SVG Export Plug-In . SVG Version: 6.00 Build 0)  -->
<svg version="1.1" id="Layer_1" xmlns="http://www.w3.org/2000/svg" xmlns:xlink="http://www.w3.org/1999/xlink" x="0px" y="0px"
	 viewBox="0 0 19 19" style="enable-background:new 0 0 19 19;" xml:space="preserve">
<style type="text/css">
	.st0{fill:#CCCBCA;}
</style>
<g id="XMLID_196_">
	<path id="settings_2_" class="st0" d="M18.3,8.1l-1.9-0.3c-0.1-0.6-0.3-1.1-0.6-1.6L17,4.7c0.3-0.3,0.2-0.8,0-1.1l-0.7-0.8
		c-0.3-0.3-0.7-0.4-1.1-0.2l-1.6,1c-0.7-0.5-1.5-0.9-2.4-1.1l-0.3-1.9C10.8,0.3,10.5,0,10.1,0H8.9C8.5,0,8.2,0.3,8.1,0.7L7.8,2.6
		C7.1,2.8,6.4,3,5.8,3.4L4.3,2.3C4,2.1,3.5,2.1,3.2,2.4L2.4,3.2C2.1,3.5,2.1,4,2.3,4.3l1.1,1.5c-0.4,0.6-0.6,1.3-0.8,2L0.7,8.1
		C0.3,8.2,0,8.5,0,8.9v1.1c0,0.4,0.3,0.8,0.7,0.8l1.9,0.3c0.1,0.6,0.4,1.1,0.6,1.7L2,14.3c-0.3,0.3-0.2,0.8,0,1.1l0.7,0.8
		c0.3,0.3,0.7,0.4,1.1,0.2l1.6-1c0.7,0.5,1.5,0.8,2.3,1l0.3,1.9C8.2,18.7,8.5,19,8.9,19h1.1c0.4,0,0.8-0.3,0.8-0.7l0.3-1.9
		c0.7-0.2,1.4-0.5,2-0.8l1.6,1.1c0.3,0.2,0.8,0.2,1.1-0.1l0.8-0.8c0.3-0.3,0.3-0.7,0.1-1.1l-1.1-1.6c0.4-0.6,0.7-1.3,0.8-2l1.9-0.3
		c0.4-0.1,0.7-0.4,0.7-0.8V8.9C19,8.5,18.7,8.2,18.3,8.1z M9.5,13.1c-2,0-3.6-1.6-3.6-3.6c0-2,1.6-3.6,3.6-3.6c2,0,3.6,1.6,3.6,3.6
		C13.1,11.5,11.5,13.1,9.5,13.1z"/>
</g>
</svg>
