<?xml version="1.0" encoding="utf-8"?>
<!-- Generator: Adobe Illustrator 19.0.0, SVG Export Plug-In . SVG Version: 6.00 Build 0)  -->
<svg version="1.1" id="Layer_1" xmlns="http://www.w3.org/2000/svg" xmlns:xlink="http://www.w3.org/1999/xlink" x="0px" y="0px"
	 viewBox="0 0 16 15" style="enable-background:new 0 0 16 15;" xml:space="preserve">
<style type="text/css">
	.st0{fill:#F3C363;}
</style>
<g id="XMLID_1533_">
	<g id="XMLID_1534_">
		<g id="XMLID_1535_">
			<path id="XMLID_1536_" class="st0" d="M16,0.9c0-0.5-0.5-0.9-1-0.9H1C0.5,0,0.1,0.4,0,0.9h0v13c0,0.6,0.4,1,1,1h14
				c0.6,0,1-0.4,1-1L16,0.9L16,0.9z M5,14H1v-3h4V14z M5,10.1H1V7h4V10.1z M5,6H1V3h4V6z M10,14H6v-3h4V14z M10,10.1H6V7h4V10.1z
				 M10,6H6V3h4V6z M15,14h-4v-3h4V14z M15,10.1h-4V7h4V10.1z M15,6h-4V3h4V6z"/>
		</g>
	</g>
</g>
</svg>
