<?xml version="1.0" encoding="utf-8"?>
<!-- Generator: Adobe Illustrator 19.0.0, SVG Export Plug-In . SVG Version: 6.00 Build 0)  -->
<svg version="1.1" id="Layer_1" xmlns="http://www.w3.org/2000/svg" xmlns:xlink="http://www.w3.org/1999/xlink" x="0px" y="0px"
	 viewBox="0 0 26.8 27.2" style="enable-background:new 0 0 26.8 27.2;" xml:space="preserve">
<style type="text/css">
	.st0{fill:#999999;}
	.st1{fill:#FF6666;}
</style>
<g id="XMLID_1552_">
	<path id="XMLID_1559_" class="st0" d="M18.5,25.4H1.8V1.9h16.8v5.8l1.8-1.8V1c0-0.5-0.4-0.9-0.9-0.9H0.9C0.4,0.1,0,0.5,0,1v25.3
		c0,0.5,0.4,0.9,0.9,0.9h18.5c0.5,0,0.9-0.4,0.9-0.9v-9.8l-1.8,1.8L18.5,25.4L18.5,25.4z"/>
	<path id="XMLID_1558_" class="st0" d="M15.9,4H4.4C4,4,3.7,4.3,3.7,4.7c0,0.4,0.3,0.7,0.7,0.7h11.5c0.4,0,0.7-0.3,0.7-0.7
		C16.6,4.3,16.3,4,15.9,4z"/>
	<path id="XMLID_1557_" class="st0" d="M16.6,8.3c0-0.4-0.3-0.7-0.7-0.7H4.4C4,7.7,3.7,8,3.7,8.3C3.7,8.7,4,9,4.4,9h11.5
		C16.3,9,16.6,8.7,16.6,8.3z"/>
	<path id="XMLID_1556_" class="st0" d="M14.9,11.3H4.4c-0.4,0-0.7,0.3-0.7,0.7c0,0.4,0.3,0.7,0.7,0.7h9.2L14.9,11.3z"/>
	<path id="XMLID_1555_" class="st0" d="M11.1,15.8c0.1-0.3,0.2-0.6,0.4-0.9H4.4c-0.4,0-0.7,0.3-0.7,0.7c0,0.4,0.3,0.7,0.7,0.7H11
		L11.1,15.8z"/>
	<path id="XMLID_1554_" class="st0" d="M4.4,18.6c-0.4,0-0.7,0.3-0.7,0.7c0,0.4,0.3,0.7,0.7,0.7h6c-0.2-0.4-0.2-0.9-0.1-1.4H4.4z"/>
	<path id="XMLID_1553_" class="st1" d="M26.3,5.3c-0.4-0.4-0.8-0.6-1.3-0.6c-0.5,0-1,0.2-1.3,0.6L13.5,15.4c-0.3,0.3-0.5,0.6-0.6,1
		L12.1,19c0,0.1,0,0.2,0.1,0.3c0.1,0.1,0.1,0.1,0.2,0.1c0,0,0.1,0,0.1,0l2.7-0.8c0.4-0.1,0.7-0.3,1-0.6L26.3,8
		c0.4-0.4,0.6-0.8,0.6-1.3C26.8,6.1,26.6,5.6,26.3,5.3z"/>
</g>
</svg>
